<?xml version="1.0" encoding="UTF-8" standalone="no"?>
<svg
   xmlns:dc="http://purl.org/dc/elements/1.1/"
   xmlns:cc="http://creativecommons.org/ns#"
   xmlns:rdf="http://www.w3.org/1999/02/22-rdf-syntax-ns#"
   xmlns:svg="http://www.w3.org/2000/svg"
   xmlns="http://www.w3.org/2000/svg"
   xmlns:xlink="http://www.w3.org/1999/xlink"
   xmlns:sodipodi="http://sodipodi.sourceforge.net/DTD/sodipodi-0.dtd"
   xmlns:inkscape="http://www.inkscape.org/namespaces/inkscape"
   version="1.1"
   preserveAspectRatio="xMidYMid meet"
   viewBox="0 0 401.73121 70.736969"
   width="401.7312"
   height="70.736969"
   id="svg6104"
   sodipodi:docname="elektraxkokeilu3.svg"
   inkscape:version="0.92.2 (5c3e80d, 2017-08-06)"
   inkscape:export-filename="C:\Users\seisk\Desktop\Elektrax\elektraxkokeilu2.png"
   inkscape:export-xdpi="96"
   inkscape:export-ydpi="96">
  <metadata
     id="metadata6108">
    <rdf:RDF>
      <cc:Work
         rdf:about="">
        <dc:format>image/svg+xml</dc:format>
        <dc:type
           rdf:resource="http://purl.org/dc/dcmitype/StillImage" />
        <dc:title />
      </cc:Work>
    </rdf:RDF>
  </metadata>
  <sodipodi:namedview
     pagecolor="#ffffff"
     bordercolor="#666666"
     borderopacity="1"
     objecttolerance="10"
     gridtolerance="10"
     guidetolerance="10"
     inkscape:pageopacity="0"
     inkscape:pageshadow="2"
     inkscape:window-width="1920"
     inkscape:window-height="986"
     id="namedview6106"
     showgrid="false"
     inkscape:zoom="2.4016949"
     inkscape:cx="107.70528"
     inkscape:cy="64.805937"
     inkscape:window-x="-11"
     inkscape:window-y="-11"
     inkscape:window-maximized="1"
     inkscape:current-layer="svg6104"
     inkscape:snap-text-baseline="true" />
  <defs
     id="defs6094">
    <path
       d="M 63.75,0 C 75.49,0 85,9.51 85,21.25 85,34 85,51 85,63.75 85,75.49 75.49,85 63.75,85 51,85 34,85 21.25,85 9.51,85 0,75.49 0,63.75 0,51 0,34 0,21.25 0,9.51 9.51,0 21.25,0 34,0 51,0 63.75,0 Z"
       id="c9DoAeZNo"
       inkscape:connector-curvature="0" />
  </defs>
  <g
     id="g6102"
     style="fill:#373737;fill-opacity:1"
     transform="matrix(0.70588235,0,0,0.70588235,0,10.736969)">
    <g
       id="g6100"
       style="fill:#373737;fill-opacity:1">
      <g
         id="g6098"
         style="fill:#373737;fill-opacity:1">
        <use
           xlink:href="#c9DoAeZNo"
           id="use6096"
           style="opacity:1;fill:#373737;fill-opacity:1"
           x="0"
           y="0"
           width="100%"
           height="100%" />
      </g>
    </g>
  </g>
  <g
     aria-label="e"
     style="font-style:normal;font-weight:normal;font-size:40px;line-height:1.25;font-family:sans-serif;letter-spacing:0px;word-spacing:0px;fill:#f4f4f4;fill-opacity:1;stroke:none"
     id="text6663"
     transform="translate(78.438693,-2.3272521)">
    <g
       aria-label="e"
       style="font-style:normal;font-variant:normal;font-weight:normal;font-stretch:normal;font-size:80px;line-height:1.25;font-family:Righteous;-inkscape-font-specification:Righteous;letter-spacing:0px;word-spacing:0px;fill:#000000;fill-opacity:1;stroke:none"
       id="text877">
      <path
         d="m -49.259699,53.065209 q 0.572917,0.179037 1.145834,0.250651 0.572916,0.03581 1.145833,0.03581 1.432292,0 2.757161,-0.39388 1.32487,-0.393881 2.470704,-1.110027 1.18164,-0.751953 2.076823,-1.790364 0.930989,-1.074219 1.503906,-2.363282 l 7.161459,7.197266 q -1.360678,1.933594 -3.151042,3.473308 -1.754558,1.539713 -3.831381,2.613932 -2.041015,1.074219 -4.332682,1.611328 -2.255859,0.572917 -4.654948,0.572917 -4.046224,0 -7.626953,-1.503906 -3.544922,-1.503907 -6.230469,-4.189454 -2.64974,-2.685547 -4.189454,-6.373698 -1.539713,-3.723958 -1.539713,-8.164063 0,-4.547526 1.539713,-8.307291 1.539714,-3.759766 4.189454,-6.409506 2.685547,-2.64974 6.230469,-4.117839 3.580729,-1.468099 7.626953,-1.468099 2.399089,0 4.690755,0.572917 2.291667,0.572917 4.332683,1.647136 2.076823,1.074218 3.867187,2.649739 1.790365,1.539714 3.151042,3.473308 z m 5.013021,-20.159506 q -0.680338,-0.250651 -1.360677,-0.322265 -0.644531,-0.07162 -1.360677,-0.07162 -2.005209,0 -3.795573,0.751953 -1.754558,0.716146 -3.079427,2.076823 -1.289063,1.360678 -2.041016,3.294271 -0.751953,1.897787 -0.751953,4.296875 0,0.53711 0.03581,1.217448 0.07162,0.680339 0.179037,1.396485 0.143229,0.680338 0.322265,1.32487 0.179037,0.644531 0.465495,1.145833 z"
         style="font-size:73.33333588px;fill:#f4f4f4;fill-opacity:1"
         id="path900"
         inkscape:connector-curvature="0" />
    </g>
  </g>
  <g
     aria-label="elektrax"
     style="font-style:normal;font-weight:normal;font-size:90.66667175px;line-height:1.25;font-family:sans-serif;letter-spacing:0px;word-spacing:0px;fill:#000000;fill-opacity:1;stroke:none"
     id="text859">
    <path
       d="m 93.996807,52.262373 q 0.677084,0.211589 1.354167,0.296224 0.677083,0.04232 1.354167,0.04232 1.692708,0 3.258463,-0.465495 1.565756,-0.465495 2.919926,-1.311849 1.39648,-0.888672 2.45442,-2.115886 1.10026,-1.269531 1.77735,-2.792969 l 8.46354,8.50586 q -1.60807,2.285157 -3.72396,4.104818 -2.07357,1.819662 -4.52799,3.089193 -2.41211,1.269531 -5.12045,1.904297 -2.666013,0.677083 -5.501299,0.677083 -4.781902,0 -9.013673,-1.777343 -4.189453,-1.777344 -7.363281,-4.951173 -3.131511,-3.173828 -4.951173,-7.532552 -1.819661,-4.401042 -1.819661,-9.648438 0,-5.374349 1.819661,-9.817709 1.819662,-4.44336 4.951173,-7.57487 3.173828,-3.131511 7.363281,-4.866537 4.231771,-1.735026 9.013673,-1.735026 2.835286,0 5.543619,0.677083 2.70833,0.677084 5.12044,1.946615 2.45443,1.269531 4.57032,3.13151 2.11588,1.819662 3.72396,4.104818 z m 5.92448,-23.824871 q -0.804037,-0.296224 -1.608073,-0.38086 -0.761719,-0.08463 -1.608073,-0.08463 -2.369792,0 -4.485678,0.888672 -2.073568,0.846354 -3.639323,2.454427 -1.523437,1.608073 -2.412109,3.893229 -0.888672,2.242839 -0.888672,5.078126 0,0.634765 0.04232,1.438802 0.08464,0.804036 0.211589,1.650391 0.169271,0.804036 0.380859,1.565755 0.211589,0.761719 0.550131,1.354167 z"
       style="font-style:normal;font-variant:normal;font-weight:normal;font-stretch:normal;font-size:86.66667175px;font-family:Righteous;-inkscape-font-specification:Righteous;fill:#373737;fill-opacity:1"
       id="path829" />
    <path
       d="M 133.14069,63.349613 H 121.50332 V 9.6857548e-8 h 11.63737 z"
       style="font-style:normal;font-variant:normal;font-weight:normal;font-stretch:normal;font-size:86.66667175px;font-family:Righteous;-inkscape-font-specification:Righteous;fill:#373737;fill-opacity:1"
       id="path831" />
    <path
       d="m 160.01243,52.262373 q 0.67709,0.211589 1.35417,0.296224 0.67708,0.04232 1.35417,0.04232 1.6927,0 3.25846,-0.465495 1.56575,-0.465495 2.91992,-1.311849 1.39649,-0.888672 2.45443,-2.115886 1.10026,-1.269531 1.77734,-2.792969 l 8.46354,8.50586 q -1.60807,2.285157 -3.72395,4.104818 -2.07357,1.819662 -4.528,3.089193 -2.41211,1.269531 -5.12044,1.904297 -2.66602,0.677083 -5.5013,0.677083 -4.78191,0 -9.01368,-1.777343 -4.18945,-1.777344 -7.36328,-4.951173 -3.13151,-3.173828 -4.95117,-7.532552 -1.81966,-4.401042 -1.81966,-9.648438 0,-5.374349 1.81966,-9.817709 1.81966,-4.44336 4.95117,-7.57487 3.17383,-3.131511 7.36328,-4.866537 4.23177,-1.735026 9.01368,-1.735026 2.83528,0 5.54362,0.677083 2.70833,0.677084 5.12044,1.946615 2.45443,1.269531 4.57031,3.13151 2.11589,1.819662 3.72396,4.104818 z m 5.92448,-23.824871 q -0.80403,-0.296224 -1.60807,-0.38086 -0.76172,-0.08463 -1.60807,-0.08463 -2.3698,0 -4.48568,0.888672 -2.07357,0.846354 -3.63932,2.454427 -1.52344,1.608073 -2.41211,3.893229 -0.88868,2.242839 -0.88868,5.078126 0,0.634765 0.0423,1.438802 0.0846,0.804036 0.21159,1.650391 0.16927,0.804036 0.38086,1.565755 0.21159,0.761719 0.55013,1.354167 z"
       style="font-style:normal;font-variant:normal;font-weight:normal;font-stretch:normal;font-size:86.66667175px;font-family:Righteous;-inkscape-font-specification:Righteous;fill:#373737;fill-opacity:1"
       id="path833" />
    <path
       d="M 199.15632,63.349613 H 187.51895 V 9.6857548e-8 h 11.63737 V 39.947919 L 216.37963,18.11198 h 13.28776 l -15.02279,18.873699 15.02279,26.363934 h -13.28776 l -9.18295,-16.461589 -8.04036,10.664063 z"
       style="font-style:normal;font-variant:normal;font-weight:normal;font-stretch:normal;font-size:86.66667175px;font-family:Righteous;-inkscape-font-specification:Righteous;fill:#373737;fill-opacity:1"
       id="path835" />
    <path
       d="m 256.96231,63.349613 q -4.18946,0 -7.8711,-1.565755 -3.68164,-1.608073 -6.47461,-4.358724 -2.75065,-2.792969 -4.35872,-6.47461 -1.56576,-3.681641 -1.56576,-7.871094 V 29.622398 h -5.62825 V 18.11198 h 5.62825 V 9.6857548e-8 h 11.51042 V 18.11198 h 17.51953 V 29.622398 H 248.20254 V 43.07943 q 0,1.819661 0.67708,3.427734 0.67709,1.565756 1.86198,2.750651 1.1849,1.184896 2.79297,1.904297 1.60808,0.677084 3.42774,0.677084 h 8.75976 v 11.510417 z"
       style="font-style:normal;font-variant:normal;font-weight:normal;font-stretch:normal;font-size:86.66667175px;font-family:Righteous;-inkscape-font-specification:Righteous;fill:#373737;fill-opacity:1"
       id="path837" />
    <path
       d="M 283.7071,63.349613 H 272.15437 V 18.027345 h 2.79297 l 3.80859,5.374349 q 2.79297,-2.539062 6.34766,-3.893229 3.55469,-1.396485 7.36328,-1.396485 h 10.19857 v 11.510418 h -10.19857 q -1.81966,0 -3.42774,0.677083 -1.60807,0.677083 -2.79296,1.861979 -1.1849,1.184896 -1.86198,2.792969 -0.67709,1.608073 -0.67709,3.427735 z"
       style="font-style:normal;font-variant:normal;font-weight:normal;font-stretch:normal;font-size:86.66667175px;font-family:Righteous;-inkscape-font-specification:Righteous;fill:#373737;fill-opacity:1"
       id="path839" />
    <path
       d="m 351.16154,63.349613 h -2.79297 l -4.48568,-6.220703 q -1.65039,1.48112 -3.51237,2.792969 -1.81966,1.269531 -3.85091,2.242838 -2.03125,0.93099 -4.18945,1.48112 -2.11589,0.55013 -4.31641,0.55013 -4.7819,0 -9.01367,-1.608073 -4.18946,-1.608073 -7.36328,-4.654948 -3.13152,-3.089193 -4.95118,-7.532552 -1.81966,-4.44336 -1.81966,-10.113933 0,-5.289714 1.81966,-9.690756 1.81966,-4.44336 4.95118,-7.617188 3.17382,-3.173828 7.36328,-4.908854 4.23177,-1.777344 9.01367,-1.777344 2.20052,0 4.35872,0.55013 2.15821,0.55013 4.18946,1.523438 2.03125,0.973307 3.85091,2.285156 1.86198,1.311849 3.47005,2.835287 l 4.48568,-5.37435 h 2.79297 z M 339.52417,40.286461 q 0,-2.369792 -0.93099,-4.570313 -0.88867,-2.242839 -2.45443,-3.935547 -1.56576,-1.735026 -3.68164,-2.750651 -2.07357,-1.057943 -4.44336,-1.057943 -2.36979,0 -4.48568,0.804036 -2.07357,0.804037 -3.63932,2.369792 -1.52344,1.565756 -2.41211,3.89323 -0.88867,2.285156 -0.88867,5.247396 0,2.96224 0.88867,5.289714 0.88867,2.285156 2.41211,3.850911 1.56575,1.565756 3.63932,2.369792 2.11589,0.804037 4.48568,0.804037 2.36979,0 4.44336,-1.015625 2.11588,-1.057943 3.68164,-2.750652 1.56576,-1.735026 2.45443,-3.935547 0.93099,-2.242838 0.93099,-4.61263 z"
       style="font-style:normal;font-variant:normal;font-weight:normal;font-stretch:normal;font-size:86.66667175px;font-family:Righteous;-inkscape-font-specification:Righteous;fill:#373737;fill-opacity:1"
       id="path841" />
    <path
       d="M 401.73119,63.349613 H 387.59708 L 378.58341,49.469404 369.4851,63.349613 H 355.35098 L 371.89721,40.11719 355.35098,17.773439 h 14.13412 l 9.09831,12.991537 9.01367,-12.991537 h 14.13411 L 385.14265,40.11719 Z"
       style="font-style:normal;font-variant:normal;font-weight:normal;font-stretch:normal;font-size:86.66667175px;font-family:Righteous;-inkscape-font-specification:Righteous;fill:#373737;fill-opacity:1"
       id="path843" />
  </g>
  <flowRoot
     xml:space="preserve"
     id="flowRoot861"
     style="fill:black;fill-opacity:1;stroke:none;font-family:sans-serif;font-style:normal;font-weight:normal;font-size:40px;line-height:1.25;letter-spacing:0px;word-spacing:0px"><flowRegion
       id="flowRegion863"><rect
         id="rect865"
         width="287.29712"
         height="92.434723"
         x="154.05788"
         y="17.441273" /></flowRegion><flowPara
       id="flowPara867" /></flowRoot>  <flowRoot
     xml:space="preserve"
     id="flowRoot869"
     style="fill:black;fill-opacity:1;stroke:none;font-family:sans-serif;font-style:normal;font-weight:normal;font-size:40px;line-height:1.25;letter-spacing:0px;word-spacing:0px"><flowRegion
       id="flowRegion871"><rect
         id="rect873"
         width="459.259"
         height="166.96542"
         x="-34.9753"
         y="-48.3456" /></flowRegion><flowPara
       id="flowPara875" /></flowRoot></svg>
