<?xml version="1.0" encoding="UTF-8" standalone="no"?>
<svg
   xmlns:dc="http://purl.org/dc/elements/1.1/"
   xmlns:cc="http://creativecommons.org/ns#"
   xmlns:rdf="http://www.w3.org/1999/02/22-rdf-syntax-ns#"
   xmlns:svg="http://www.w3.org/2000/svg"
   xmlns="http://www.w3.org/2000/svg"
   xmlns:xlink="http://www.w3.org/1999/xlink"
   xmlns:sodipodi="http://sodipodi.sourceforge.net/DTD/sodipodi-0.dtd"
   xmlns:inkscape="http://www.inkscape.org/namespaces/inkscape"
   version="1.1"
   preserveAspectRatio="xMidYMid meet"
   viewBox="0 0 295 85"
   width="295"
   height="85"
   id="svg6104"
   sodipodi:docname="elektraxkokeilu.svg"
   inkscape:version="0.92.2 (5c3e80d, 2017-08-06)">
  <metadata
     id="metadata6108">
    <rdf:RDF>
      <cc:Work
         rdf:about="">
        <dc:format>image/svg+xml</dc:format>
        <dc:type
           rdf:resource="http://purl.org/dc/dcmitype/StillImage" />
        <dc:title></dc:title>
      </cc:Work>
    </rdf:RDF>
  </metadata>
  <sodipodi:namedview
     pagecolor="#ffffff"
     bordercolor="#666666"
     borderopacity="1"
     objecttolerance="10"
     gridtolerance="10"
     guidetolerance="10"
     inkscape:pageopacity="0"
     inkscape:pageshadow="2"
     inkscape:window-width="1920"
     inkscape:window-height="986"
     id="namedview6106"
     showgrid="false"
     inkscape:zoom="3.7220339"
     inkscape:cx="128.95595"
     inkscape:cy="17.021297"
     inkscape:window-x="-11"
     inkscape:window-y="-11"
     inkscape:window-maximized="1"
     inkscape:current-layer="svg6104" />
  <defs
     id="defs6094">
    <path
       d="M63.75 0C75.49 0 85 9.51 85 21.25C85 34 85 51 85 63.75C85 75.49 75.49 85 63.75 85C51 85 34 85 21.25 85C9.51 85 0 75.49 0 63.75C0 51 0 34 0 21.25C0 9.51 9.51 0 21.25 0C34 0 51 0 63.75 0Z"
       id="c9DoAeZNo" />
  </defs>
  <g
     id="g6102"
     style="fill:#373737;fill-opacity:1">
    <g
       id="g6100"
       style="fill:#373737;fill-opacity:1">
      <g
         id="g6098"
         style="fill:#373737;fill-opacity:1">
        <use
           xlink:href="#c9DoAeZNo"
           id="use6096"
           fill-opacity="1"
           fill="#9b67c9"
           opacity="1"
           style="fill:#373737;fill-opacity:1" />
      </g>
    </g>
  </g>
  <g
     aria-label="elektrax"
     style="font-style:normal;font-weight:normal;font-size:40px;line-height:1.25;font-family:sans-serif;letter-spacing:0px;word-spacing:0px;fill:#000000;fill-opacity:1;stroke:none"
     id="text6112">
    <path
       d="m 116.38442,51.164213 q 0.38542,0.120442 0.77083,0.168619 0.38542,0.02409 0.77084,0.02409 0.96354,0 1.85481,-0.264974 0.89128,-0.264974 1.66211,-0.746745 0.79492,-0.505859 1.39714,-1.204427 0.6263,-0.722656 1.01172,-1.589843 l 4.81771,4.841796 q -0.91537,1.300782 -2.1198,2.336589 -1.18033,1.035807 -2.57747,1.758463 -1.37305,0.722657 -2.91471,1.083985 -1.51758,0.385416 -3.13151,0.385416 -2.72201,0 -5.13086,-1.011718 -2.38477,-1.011719 -4.19141,-2.81836 -1.78255,-1.80664 -2.81836,-4.28776 -1.03581,-2.505208 -1.03581,-5.492187 0,-3.059245 1.03581,-5.588542 1.03581,-2.529297 2.81836,-4.311849 1.80664,-1.782552 4.19141,-2.770182 2.40885,-0.98763 5.13086,-0.98763 1.61393,0 3.15559,0.385416 1.54167,0.385417 2.91472,1.108073 1.39713,0.722657 2.60156,1.782552 1.20443,1.035808 2.11979,2.336589 z m 3.3724,-13.561849 q -0.45769,-0.16862 -0.91537,-0.216797 -0.43359,-0.04818 -0.91536,-0.04818 -1.34896,0 -2.55339,0.50586 -1.18034,0.48177 -2.07161,1.397135 -0.86719,0.915364 -1.37305,2.216146 -0.50586,1.276692 -0.50586,2.890625 0,0.361328 0.0241,0.81901 0.0482,0.457682 0.12044,0.939453 0.0964,0.457682 0.2168,0.891276 0.12044,0.433594 0.31315,0.770833 z"
       style="font-style:normal;font-variant:normal;font-weight:normal;font-stretch:normal;font-size:49.33333206px;font-family:Righteous;-inkscape-font-specification:Righteous;fill:#373737;fill-opacity:1"
       id="path6665" />
    <path
       d="m 138.66632,57.47541 h -6.62435 V 21.414865 h 6.62435 z"
       style="font-style:normal;font-variant:normal;font-weight:normal;font-stretch:normal;font-size:49.33333206px;font-family:Righteous;-inkscape-font-specification:Righteous;fill:#373737;fill-opacity:1"
       id="path6667" />
    <path
       d="m 153.96254,51.164213 q 0.38542,0.120442 0.77084,0.168619 0.38541,0.02409 0.77083,0.02409 0.96354,0 1.85482,-0.264974 0.89127,-0.264974 1.66211,-0.746745 0.79492,-0.505859 1.39713,-1.204427 0.62631,-0.722656 1.01172,-1.589843 l 4.81771,4.841796 q -0.91536,1.300782 -2.11979,2.336589 -1.18034,1.035807 -2.57748,1.758463 -1.37304,0.722657 -2.91471,1.083985 -1.51758,0.385416 -3.13151,0.385416 -2.722,0 -5.13086,-1.011718 -2.38476,-1.011719 -4.1914,-2.81836 -1.78256,-1.80664 -2.81836,-4.28776 -1.03581,-2.505208 -1.03581,-5.492187 0,-3.059245 1.03581,-5.588542 1.0358,-2.529297 2.81836,-4.311849 1.80664,-1.782552 4.1914,-2.770182 2.40886,-0.98763 5.13086,-0.98763 1.61393,0 3.1556,0.385416 1.54167,0.385417 2.91471,1.108073 1.39714,0.722657 2.60157,1.782552 1.20442,1.035808 2.11979,2.336589 z m 3.3724,-13.561849 q -0.45768,-0.16862 -0.91536,-0.216797 -0.4336,-0.04818 -0.91537,-0.04818 -1.34896,0 -2.55338,0.50586 -1.18034,0.48177 -2.07162,1.397135 -0.86719,0.915364 -1.37305,2.216146 -0.50586,1.276692 -0.50586,2.890625 0,0.361328 0.0241,0.81901 0.0482,0.457682 0.12045,0.939453 0.0964,0.457682 0.21679,0.891276 0.12045,0.433594 0.31315,0.770833 z"
       style="font-style:normal;font-variant:normal;font-weight:normal;font-stretch:normal;font-size:49.33333206px;font-family:Righteous;-inkscape-font-specification:Righteous;fill:#373737;fill-opacity:1"
       id="path6669" />
    <path
       d="m 176.24444,57.47541 h -6.62435 V 21.414865 h 6.62435 v 22.739582 l 9.80404,-12.429687 h 7.5638 l -8.55143,10.743489 8.55143,15.007161 h -7.5638 l -5.22722,-9.370442 -4.57682,6.070312 z"
       style="font-style:normal;font-variant:normal;font-weight:normal;font-stretch:normal;font-size:49.33333206px;font-family:Righteous;-inkscape-font-specification:Righteous;fill:#373737;fill-opacity:1"
       id="path6671" />
    <path
       d="m 209.14939,57.47541 q -2.38477,0 -4.48047,-0.891276 -2.0957,-0.915364 -3.68555,-2.481119 -1.56575,-1.589844 -2.48112,-3.685547 -0.89127,-2.095703 -0.89127,-4.480469 V 38.276843 H 194.4072 V 31.72476 h 3.20378 V 21.414865 h 6.55208 V 31.72476 h 9.97266 v 6.552083 h -9.97266 v 7.660156 q 0,1.035808 0.38542,1.951172 0.38541,0.891276 1.05989,1.565755 0.67448,0.674479 1.58985,1.083985 0.91536,0.385416 1.95117,0.385416 h 4.98633 v 6.552083 z"
       style="font-style:normal;font-variant:normal;font-weight:normal;font-stretch:normal;font-size:49.33333206px;font-family:Righteous;-inkscape-font-specification:Righteous;fill:#373737;fill-opacity:1"
       id="path6673" />
    <path
       d="m 224.37335,57.47541 h -6.57617 V 31.676583 h 1.58984 l 2.16797,3.059245 q 1.58984,-1.445313 3.61328,-2.216146 2.02344,-0.794922 4.19141,-0.794922 h 5.80534 v 6.552083 h -5.80534 q -1.03581,0 -1.95117,0.385417 -0.91537,0.385417 -1.58985,1.059896 -0.67448,0.674479 -1.05989,1.589843 -0.38542,0.915365 -0.38542,1.951172 z"
       style="font-style:normal;font-variant:normal;font-weight:normal;font-stretch:normal;font-size:49.33333206px;font-family:Righteous;-inkscape-font-specification:Righteous;fill:#373737;fill-opacity:1"
       id="path6675" />
    <path
       d="m 262.77049,57.47541 h -1.58985 l -2.55338,-3.541015 q -0.93946,0.843099 -1.99935,1.589844 -1.03581,0.722656 -2.19206,1.276692 -1.15625,0.529948 -2.38476,0.843099 -1.20443,0.313151 -2.45704,0.313151 -2.722,0 -5.13085,-0.915364 -2.38477,-0.915365 -4.19141,-2.64974 -1.78255,-1.758463 -2.81836,-4.28776 -1.03581,-2.529297 -1.03581,-5.757161 0,-3.011068 1.03581,-5.516276 1.03581,-2.529297 2.81836,-4.335938 1.80664,-1.80664 4.19141,-2.79427 2.40885,-1.011719 5.13085,-1.011719 1.25261,0 2.48112,0.313151 1.22852,0.313151 2.38477,0.867187 1.15625,0.554037 2.19206,1.300782 1.05989,0.746744 1.97526,1.613932 l 2.55338,-3.059245 h 1.58985 z m -6.62435,-13.128254 q 0,-1.348959 -0.52995,-2.601563 -0.50586,-1.276693 -1.39714,-2.240234 -0.89127,-0.98763 -2.0957,-1.565755 -1.18034,-0.602214 -2.5293,-0.602214 -1.34895,0 -2.55338,0.457682 -1.18034,0.457683 -2.07162,1.348959 -0.86718,0.891276 -1.37304,2.216146 -0.50586,1.300781 -0.50586,2.986979 0,1.686197 0.50586,3.011067 0.50586,1.300781 1.37304,2.192057 0.89128,0.891276 2.07162,1.348959 1.20443,0.457682 2.55338,0.457682 1.34896,0 2.5293,-0.578125 1.20443,-0.602213 2.0957,-1.565755 0.89128,-0.98763 1.39714,-2.240234 0.52995,-1.276693 0.52995,-2.625651 z"
       style="font-style:normal;font-variant:normal;font-weight:normal;font-stretch:normal;font-size:49.33333206px;font-family:Righteous;-inkscape-font-specification:Righteous;fill:#373737;fill-opacity:1"
       id="path6677" />
    <path
       d="m 291.55628,57.47541 h -8.04557 l -5.13086,-7.901041 -5.17903,7.901041 h -8.04558 l 9.41862,-13.224609 -9.41862,-12.718749 h 8.04558 l 5.17903,7.395182 5.13086,-7.395182 h 8.04557 l -9.4427,12.718749 z"
       style="font-style:normal;font-variant:normal;font-weight:normal;font-stretch:normal;font-size:49.33333206px;font-family:Righteous;-inkscape-font-specification:Righteous;fill:#373737;fill-opacity:1"
       id="path6679" />
  </g>
  <g
     aria-label="e"
     style="font-style:normal;font-weight:normal;font-size:40px;line-height:1.25;font-family:sans-serif;letter-spacing:0px;word-spacing:0px;fill:#000000;fill-opacity:1;stroke:none"
     id="text6663">
    <path
       d="m 41.079874,54.790311 q 0.729167,0.227864 1.458333,0.31901 0.729167,0.04557 1.458334,0.04557 1.822917,0 3.509114,-0.501302 1.686198,-0.501302 3.144532,-1.41276 1.503906,-0.957032 2.643229,-2.278646 1.184896,-1.367188 1.914063,-3.007813 l 9.114583,9.160157 q -1.731771,2.460937 -4.010417,4.420573 -2.233073,1.959635 -4.876302,3.326823 -2.597656,1.367187 -5.514323,2.050781 -2.871094,0.729167 -5.924479,0.729167 -5.14974,0 -9.707032,-1.914063 Q 29.77779,63.813749 26.359822,60.39578 22.987426,56.977811 21.02779,52.2838 19.068155,47.544217 19.068155,41.893175 q 0,-5.78776 1.959635,-10.572917 1.959636,-4.785156 5.332032,-8.157552 3.417968,-3.372396 7.929687,-5.240886 4.557292,-1.868489 9.707032,-1.868489 3.053385,0 5.970052,0.729166 2.916667,0.729167 5.514323,2.096355 2.643229,1.367187 4.921875,3.372395 2.278646,1.959636 4.010417,4.420574 z m 6.380209,-25.657553 q -0.865886,-0.31901 -1.731771,-0.410156 -0.820313,-0.09115 -1.731771,-0.09115 -2.552084,0 -4.830729,0.957031 -2.233073,0.911459 -3.919271,2.643229 -1.640625,1.731771 -2.597657,4.192709 -0.957031,2.415365 -0.957031,5.46875 0,0.683594 0.04557,1.549479 0.09115,0.865886 0.227864,1.777344 0.182292,0.865886 0.410157,1.686198 0.227864,0.820313 0.592448,1.458333 z"
       style="font-style:normal;font-variant:normal;font-weight:normal;font-stretch:normal;font-size:93.33333588px;font-family:Righteous;-inkscape-font-specification:Righteous;fill:#ffffff;fill-opacity:1"
       id="path6682" />
  </g>
</svg>
