<?xml version="1.0" encoding="UTF-8" standalone="no"?>
<svg
   xmlns:dc="http://purl.org/dc/elements/1.1/"
   xmlns:cc="http://creativecommons.org/ns#"
   xmlns:rdf="http://www.w3.org/1999/02/22-rdf-syntax-ns#"
   xmlns:svg="http://www.w3.org/2000/svg"
   xmlns="http://www.w3.org/2000/svg"
   xmlns:xlink="http://www.w3.org/1999/xlink"
   xmlns:sodipodi="http://sodipodi.sourceforge.net/DTD/sodipodi-0.dtd"
   xmlns:inkscape="http://www.inkscape.org/namespaces/inkscape"
   version="1.1"
   preserveAspectRatio="xMidYMid meet"
   viewBox="0 0 60.000001 60"
   width="60"
   height="60"
   id="svg6104"
   sodipodi:docname="elektraxlogo.svg"
   inkscape:version="0.92.2 (5c3e80d, 2017-08-06)"
   inkscape:export-filename="C:\Users\seisk\Desktop\Elektrax\elektraxkokeilu2.png"
   inkscape:export-xdpi="96"
   inkscape:export-ydpi="96">
  <metadata
     id="metadata6108">
    <rdf:RDF>
      <cc:Work
         rdf:about="">
        <dc:format>image/svg+xml</dc:format>
        <dc:type
           rdf:resource="http://purl.org/dc/dcmitype/StillImage" />
        <dc:title></dc:title>
      </cc:Work>
    </rdf:RDF>
  </metadata>
  <sodipodi:namedview
     pagecolor="#ffffff"
     bordercolor="#666666"
     borderopacity="1"
     objecttolerance="10"
     gridtolerance="10"
     guidetolerance="10"
     inkscape:pageopacity="0"
     inkscape:pageshadow="2"
     inkscape:window-width="1920"
     inkscape:window-height="986"
     id="namedview6106"
     showgrid="false"
     inkscape:zoom="2.4016949"
     inkscape:cx="189.34938"
     inkscape:cy="64.805937"
     inkscape:window-x="-11"
     inkscape:window-y="-11"
     inkscape:window-maximized="1"
     inkscape:current-layer="svg6104"
     inkscape:snap-text-baseline="true" />
  <defs
     id="defs6094">
    <path
       d="M 63.75,0 C 75.49,0 85,9.51 85,21.25 85,34 85,51 85,63.75 85,75.49 75.49,85 63.75,85 51,85 34,85 21.25,85 9.51,85 0,75.49 0,63.75 0,51 0,34 0,21.25 0,9.51 9.51,0 21.25,0 34,0 51,0 63.75,0 Z"
       id="c9DoAeZNo"
       inkscape:connector-curvature="0" />
  </defs>
  <g
     id="g6102"
     style="fill:#373737;fill-opacity:1"
     transform="scale(0.70588235)">
    <g
       id="g6100"
       style="fill:#373737;fill-opacity:1">
      <g
         id="g6098"
         style="fill:#373737;fill-opacity:1">
        <use
           xlink:href="#c9DoAeZNo"
           id="use6096"
           style="opacity:1;fill:#373737;fill-opacity:1"
           x="0"
           y="0"
           width="100%"
           height="100%" />
      </g>
    </g>
  </g>
  <g
     aria-label="e"
     style="font-style:normal;font-weight:normal;font-size:40px;line-height:1.25;font-family:sans-serif;letter-spacing:0px;word-spacing:0px;fill:#f4f4f4;fill-opacity:1;stroke:none"
     id="text6663"
     transform="translate(78.438693,-13.064221)">
    <g
       aria-label="e"
       style="font-style:normal;font-variant:normal;font-weight:normal;font-stretch:normal;font-size:80px;line-height:1.25;font-family:Righteous;-inkscape-font-specification:Righteous;letter-spacing:0px;word-spacing:0px;fill:#000000;fill-opacity:1;stroke:none"
       id="text877">
      <path
         d="m -49.259699,53.065209 q 0.572917,0.179037 1.145834,0.250651 0.572916,0.03581 1.145833,0.03581 1.432292,0 2.757161,-0.39388 1.32487,-0.393881 2.470704,-1.110027 1.18164,-0.751953 2.076823,-1.790364 0.930989,-1.074219 1.503906,-2.363282 l 7.161459,7.197266 q -1.360678,1.933594 -3.151042,3.473308 -1.754558,1.539713 -3.831381,2.613932 -2.041015,1.074219 -4.332682,1.611328 -2.255859,0.572917 -4.654948,0.572917 -4.046224,0 -7.626953,-1.503906 -3.544922,-1.503907 -6.230469,-4.189454 -2.64974,-2.685547 -4.189454,-6.373698 -1.539713,-3.723958 -1.539713,-8.164063 0,-4.547526 1.539713,-8.307291 1.539714,-3.759766 4.189454,-6.409506 2.685547,-2.64974 6.230469,-4.117839 3.580729,-1.468099 7.626953,-1.468099 2.399089,0 4.690755,0.572917 2.291667,0.572917 4.332683,1.647136 2.076823,1.074218 3.867187,2.649739 1.790365,1.539714 3.151042,3.473308 z m 5.013021,-20.159506 q -0.680338,-0.250651 -1.360677,-0.322265 -0.644531,-0.07162 -1.360677,-0.07162 -2.005209,0 -3.795573,0.751953 -1.754558,0.716146 -3.079427,2.076823 -1.289063,1.360678 -2.041016,3.294271 -0.751953,1.897787 -0.751953,4.296875 0,0.53711 0.03581,1.217448 0.07162,0.680339 0.179037,1.396485 0.143229,0.680338 0.322265,1.32487 0.179037,0.644531 0.465495,1.145833 z"
         style="font-size:73.33333588px;fill:#f4f4f4;fill-opacity:1"
         id="path900"
         inkscape:connector-curvature="0" />
    </g>
  </g>
  <flowRoot
     xml:space="preserve"
     id="flowRoot861"
     style="font-style:normal;font-weight:normal;font-size:40px;line-height:1.25;font-family:sans-serif;letter-spacing:0px;word-spacing:0px;fill:#000000;fill-opacity:1;stroke:none"
     transform="translate(0,-10.736969)"><flowRegion
       id="flowRegion863"><rect
         id="rect865"
         width="287.29712"
         height="92.434723"
         x="154.05788"
         y="17.441273" /></flowRegion><flowPara
       id="flowPara867" /></flowRoot>  <flowRoot
     xml:space="preserve"
     id="flowRoot869"
     style="font-style:normal;font-weight:normal;font-size:40px;line-height:1.25;font-family:sans-serif;letter-spacing:0px;word-spacing:0px;fill:#000000;fill-opacity:1;stroke:none"
     transform="translate(0,-10.736969)"><flowRegion
       id="flowRegion871"><rect
         id="rect873"
         width="459.259"
         height="166.96542"
         x="-34.9753"
         y="-48.3456" /></flowRegion><flowPara
       id="flowPara875" /></flowRoot></svg>
